<svg data-v-0dd9719b="" version="1.0" xmlns="http://www.w3.org/2000/svg" xmlns:xlink="http://www.w3.org/1999/xlink" width="100%" height="100%" viewBox="0 0 340.000000 250.000000" preserveAspectRatio="xMidYMid meet" color-interpolation-filters="sRGB" style="margin: auto;"> <rect data-v-0dd9719b="" x="0" y="0" width="100%" height="100%" fill="#fff" fill-opacity="1" class="background"></rect> <rect data-v-0dd9719b="" x="0" y="0" width="100%" height="100%" fill="url(#watermark)" fill-opacity="1" class="watermarklayer"></rect> <g data-v-0dd9719b="" fill="#00a0e9" class="icon-text-wrapper icon-svg-group iconsvg" transform="translate(80.88499438762665,73.50398635864258)"><g class="iconsvg-imagesvg" transform="translate(59.11500549316406,0)"><g><rect fill="#00a0e9" fill-opacity="0" stroke-width="2" x="0" y="0" width="60" height="61.19202056051891" class="image-rect"></rect> <svg x="0" y="0" width="60" height="61.19202056051891" filtersec="colorsb5974573261" class="image-svg-svg primary" style="overflow: visible;"><svg xmlns="http://www.w3.org/2000/svg" viewBox="0 0.0013545824913308024 30.95177459716797 31.566667556762695"><g><g><path d="M15 2.14a14.66 14.66 0 0 1 5.87-.68 14.86 14.86 0 0 0-17.8 12.63h1.8A14.87 14.87 0 0 1 15 2.14zm.74.86a14.2 14.2 0 0 0-9.6 11.09h1.7A14.23 14.23 0 0 1 23 2.6a14.06 14.06 0 0 0-7.29.4zm-3.21-2a15.56 15.56 0 0 1 6.12-.67A15.47 15.47 0 0 0 .07 14.09h1.87A15.48 15.48 0 0 1 12.53 1z" fill="#00a0e9"></path><path d="M27.23 22.66a14.9 14.9 0 0 1-2.35 5.43 14.85 14.85 0 0 0-2.05-21.7L21.93 8a14.88 14.88 0 0 1 5.3 14.66zm-1.12.22A14.2 14.2 0 0 0 21.31 9l-.86 1.5a14.23 14.23 0 0 1 2.35 18.91 14.15 14.15 0 0 0 3.31-6.53zm3.29-1.78a15.26 15.26 0 0 1-2.4 5.66 15.49 15.49 0 0 0-2.62-23L23.4 5.4a15.51 15.51 0 0 1 6 15.7z" fill="#fcc800"></path><path d="M3.63 23.21a14.88 14.88 0 0 1-3.52-4.75 14.68 14.68 0 0 0 4.18 6.41 14.87 14.87 0 0 0 15.63 2.67L19 26a14.86 14.86 0 0 1-15.37-2.79zM4 22.13a14.23 14.23 0 0 0 14.41 2.78l-.87-1.5a14.22 14.22 0 0 1-14.16-2.87A14.07 14.07 0 0 1 0 16a14.13 14.13 0 0 0 4 6.13zm-.1 3.74a15.35 15.35 0 0 1-3.68-4.95 15.49 15.49 0 0 0 21.21 9.22l-.94-1.62A15.48 15.48 0 0 1 3.9 25.87z" fill="#e60012"></path></g></g></svg></svg> <!----></g></g> <g transform="translate(0,68.19202423095703)"><g data-gra="path-name" fill-rule="" class="tp-name iconsvg-namesvg"><g transform="scale(1)"><g><path d="M9.13 0.36C16.9 0.36 19.31-2.56 19.31-7.55 19.31-12.09 18.56-14.08 12.31-15.7 9.21-16.5 8.66-16.75 8.66-17.91 8.66-19.1 9.57-19.64 11.88-19.64 13.86-19.64 17-19.17 18.05-18.77L18.05-24.51C16.64-24.98 14.69-25.42 11.55-25.42 5.56-25.42 1.73-23.54 1.73-17.62 1.73-13.18 3.03-11.44 8.52-10.18 11.66-9.42 12.13-8.81 12.13-7.76 12.13-6.21 11.73-5.7 8.74-5.7 6.5-5.7 3.57-6.17 1.91-6.64L1.91-0.47C3.68-0.04 6.35 0.36 9.13 0.36ZM35.74-19.86C32.56-19.86 30.97-18.84 30.22-17.87L30.22-19.49 23.36-19.49 23.36 7.22 30.22 7.22 30.22-1.84C30.97-0.51 32.42 0.36 35.74 0.36 41.88 0.36 43.29-4.01 43.29-9.75 43.29-16.1 41.88-19.86 35.74-19.86ZM33.14-4.62C30.4-4.62 29.82-6.53 29.82-9.75 29.82-13.18 30.4-14.95 33.14-14.95 35.92-14.95 36.35-12.92 36.35-9.75 36.35-6.75 35.99-4.62 33.14-4.62ZM64.77-11.01C64.77-16.97 62.89-19.86 55.96-19.86 49.49-19.86 45.74-17.76 45.74-9.75 45.74-1.73 49.49 0.36 55.63 0.36 59.49 0.36 62.6-0.36 63.79-1.19L63.79-6.25C62.64-5.56 59.64-4.84 57-4.84 54.51-4.84 52.96-5.52 52.56-7.22L64.55-7.94C64.66-8.23 64.77-9.42 64.77-11.01ZM52.53-11.88C52.67-14.3 53.68-14.84 55.99-14.84 58.16-14.84 58.7-13.83 58.7-12.35ZM86.14-11.01C86.14-16.97 84.26-19.86 77.33-19.86 70.87-19.86 67.11-17.76 67.11-9.75 67.11-1.73 70.87 0.36 77 0.36 80.87 0.36 83.97-0.36 85.16-1.19L85.16-6.25C84.01-5.56 81.01-4.84 78.38-4.84 75.88-4.84 74.33-5.52 73.94-7.22L85.92-7.94C86.03-8.23 86.14-9.42 86.14-11.01ZM73.9-11.88C74.04-14.3 75.05-14.84 77.36-14.84 79.53-14.84 80.07-13.83 80.07-12.35ZM101.62-27.44L101.62-17.55C100.9-18.95 99.42-19.86 96.06-19.86 89.89-19.86 88.48-15.45 88.48-9.75 88.48-3.39 89.89 0.36 96.06 0.36 99.6 0.36 100.94-0.76 101.7-2.35L102.09 0 108.41 0 108.41-27.44ZM98.63-4.62C95.85-4.62 95.42-6.57 95.42-9.75 95.42-12.74 95.85-14.95 98.63-14.95 101.34-14.95 101.95-12.89 101.95-9.75 101.95-6.32 101.37-4.62 98.63-4.62ZM113.5 7.22C121.05 7.22 123.57 5.88 126.75-2.67L132.92-19.49 125.42-19.49 122.09-7.33 121.88-7.33 118.27-19.49 110.61-19.49 118.05-0.25C117.76 0.76 116.68 1.26 113.5 1.26ZM145.92-22.82C146.17-22.82 146.61-22.78 147-22.67L147-27.4C146.25-27.51 145.45-27.58 144.69-27.58 139.46-27.58 136.17-26.43 136.17-19.68L136.17-19.49 133.36-19.49 133.36-14.22 136.17-14.22 136.17 0 143 0 143-14.22 146.25-14.22 146.25-19.49 143-19.49 143-19.57C143-22.17 143.32-22.82 145.92-22.82ZM154.91 0.22C155.74 0.22 156.53 0.14 157.33 0L157.33-5.16C156.93-5.05 156.82-5.09 156.57-5.09 155.45-5.09 155.09-5.56 155.09-7.18L155.09-27.44 148.23-27.44 148.23-5.56C148.23-1.62 149.53 0.22 154.91 0.22ZM160.54 7.22C168.09 7.22 170.61 5.88 173.79-2.67L179.96-19.49 172.45-19.49 169.13-7.33 168.92-7.33 165.31-19.49 157.65-19.49 165.09-0.25C164.8 0.76 163.72 1.26 160.54 1.26Z" transform="translate(-1.7300000190734863, 27.579999923706055)"></path></g> <!----> <!----> <!----> <!----> <!----> <!----> <!----></g></g> <!----></g></g><defs v-gra="od"></defs></svg>